<?xml version="1.0" encoding="utf-8"?>
<!-- Generator: Adobe Illustrator 23.0.2, SVG Export Plug-In . SVG Version: 6.00 Build 0)  -->
<!DOCTYPE svg PUBLIC "-//W3C//DTD SVG 1.1//EN" "http://www.w3.org/Graphics/SVG/1.1/DTD/svg11.dtd" [
	<!ENTITY ns_extend "http://ns.adobe.com/Extensibility/1.0/">
	<!ENTITY ns_ai "http://ns.adobe.com/AdobeIllustrator/10.0/">
	<!ENTITY ns_graphs "http://ns.adobe.com/Graphs/1.0/">
	<!ENTITY ns_vars "http://ns.adobe.com/Variables/1.0/">
	<!ENTITY ns_imrep "http://ns.adobe.com/ImageReplacement/1.0/">
	<!ENTITY ns_sfw "http://ns.adobe.com/SaveForWeb/1.0/">
	<!ENTITY ns_custom "http://ns.adobe.com/GenericCustomNamespace/1.0/">
	<!ENTITY ns_adobe_xpath "http://ns.adobe.com/XPath/1.0/">
]>
<svg version="1.1" id="Layer_1" xmlns:x="&ns_extend;" xmlns:i="&ns_ai;" xmlns:graph="&ns_graphs;"
	 xmlns="http://www.w3.org/2000/svg" xmlns:xlink="http://www.w3.org/1999/xlink" x="0px" y="0px" viewBox="0 0 30 30"
	 style="enable-background:new 0 0 30 30;" xml:space="preserve">
<style type="text/css">
	.st0{fill:#0554F2;}
</style>
<metadata>
	<sfw  xmlns="&ns_sfw;">
		<slices></slices>
		<sliceSourceBounds  bottomLeftOrigin="true" height="29.3" width="30" x="233" y="241.4"></sliceSourceBounds>
	</sfw>
</metadata>
<path class="st0" d="M10,23.9c0,0.1-0.1,0.2-0.3,0.2c-0.2,0-0.3-0.1-0.3-0.2c0-0.1,0.1-0.2,0.3-0.2C9.9,23.7,10,23.8,10,23.9z
	 M8.2,23.7c0,0.1,0.1,0.3,0.3,0.3c0.2,0.1,0.3,0,0.4-0.1c0-0.1-0.1-0.3-0.3-0.3C8.4,23.5,8.2,23.5,8.2,23.7L8.2,23.7z M10.8,23.6
	c-0.2,0-0.3,0.2-0.3,0.3c0,0.1,0.2,0.2,0.4,0.2c0.2,0,0.3-0.2,0.3-0.3C11.2,23.6,11,23.5,10.8,23.6z M14.8,0.4C6.4,0.4,0,6.7,0,15.1
	c0,6.7,4.2,12.4,10.3,14.5c0.8,0.1,1-0.3,1-0.7c0-0.4,0-2.4,0-3.7c0,0-4.2,0.9-5.1-1.8c0,0-0.7-1.8-1.7-2.2c0,0-1.4-0.9,0.1-0.9
	c0,0,1.5,0.1,2.3,1.6c1.3,2.3,3.5,1.7,4.4,1.3c0.1-1,0.5-1.6,1-2c-3.4-0.4-6.8-0.9-6.8-6.7c0-1.7,0.5-2.5,1.4-3.6
	c-0.2-0.4-0.7-2,0.2-4.1c1.3-0.4,4.2,1.6,4.2,1.6c1.2-0.3,2.5-0.5,3.8-0.5s2.6,0.2,3.8,0.5c0,0,2.9-2,4.2-1.6
	c0.8,2.1,0.3,3.7,0.2,4.1c1,1.1,1.6,1.9,1.6,3.6c0,5.8-3.6,6.3-6.9,6.7c0.6,0.5,1,1.4,1,2.8c0,2,0,4.6,0,5.1c0,0.4,0.3,0.9,1,0.7
	c6-2,10.1-7.7,10.1-14.5C30,6.7,23.2,0.4,14.8,0.4z M5.9,21.2c-0.1,0.1-0.1,0.2,0,0.3c0.1,0.1,0.2,0.1,0.3,0.1
	c0.1-0.1,0.1-0.2,0-0.3C6.1,21.2,6,21.2,5.9,21.2z M5.2,20.7c0,0.1,0,0.2,0.1,0.2c0.1,0.1,0.2,0,0.3,0c0-0.1,0-0.2-0.1-0.2
	C5.4,20.7,5.3,20.7,5.2,20.7z M7.2,22.9c-0.1,0.1-0.1,0.3,0.1,0.4c0.1,0.1,0.3,0.2,0.4,0.1c0.1-0.1,0-0.3-0.1-0.4
	C7.4,22.8,7.3,22.8,7.2,22.9z M6.5,22c-0.1,0.1-0.1,0.2,0,0.4s0.3,0.2,0.3,0.1c0.1-0.1,0.1-0.2,0-0.4C6.7,22,6.6,21.9,6.5,22L6.5,22
	z"/>
</svg>
