<?xml version="1.0" encoding="utf-8"?>
<!-- Generator: Adobe Illustrator 23.0.2, SVG Export Plug-In . SVG Version: 6.00 Build 0)  -->
<svg version="1.1" id="Layer_1" xmlns="http://www.w3.org/2000/svg" xmlns:xlink="http://www.w3.org/1999/xlink" x="0px" y="0px"
	 width="19px" height="19px" viewBox="0 0 19 19" style="enable-background:new 0 0 19 19;" xml:space="preserve">
<style type="text/css">
	.st0{fill:#037EF3;}
</style>
<g>
	<path class="st0" d="M4.94,9.9c-0.13,0-0.27,0.01-0.42,0.03c-0.15,0.02-0.28,0.06-0.41,0.12c-0.12,0.06-0.23,0.14-0.31,0.25
		c-0.08,0.1-0.12,0.24-0.12,0.41c0,0.32,0.1,0.54,0.3,0.66c0.2,0.12,0.48,0.18,0.82,0.18c0.21,0,0.39,0,0.55-0.01
		c0.16-0.01,0.3-0.03,0.4-0.05v-1.47C5.7,9.99,5.6,9.96,5.45,9.94C5.31,9.92,5.14,9.9,4.94,9.9z"/>
	<path class="st0" d="M17.74,13.98L17.74,13.98c0.74-1.33,1.16-2.86,1.16-4.48c0-5.14-4.23-9.31-9.45-9.31S0,4.36,0,9.5
		c0,5.14,4.23,9.31,9.45,9.31c1.75,0,3.4-0.47,4.8-1.29l0,0L19,18.81L17.74,13.98z M6.62,12.1c-0.08,0.01-0.18,0.03-0.32,0.05
		c-0.14,0.02-0.29,0.04-0.46,0.06c-0.17,0.02-0.36,0.04-0.55,0.05c-0.2,0.02-0.4,0.02-0.59,0.02c-0.28,0-0.53-0.03-0.77-0.09
		c-0.23-0.06-0.44-0.15-0.61-0.27c-0.17-0.12-0.3-0.29-0.4-0.49c-0.09-0.2-0.14-0.45-0.14-0.73c0-0.27,0.06-0.51,0.17-0.7
		c0.11-0.2,0.26-0.35,0.45-0.47c0.19-0.12,0.41-0.21,0.66-0.27c0.25-0.06,0.52-0.09,0.8-0.09c0.09,0,0.18,0,0.27,0.01
		c0.09,0.01,0.18,0.02,0.27,0.04c0.09,0.02,0.16,0.03,0.22,0.04C5.69,9.3,5.74,9.31,5.76,9.32V9.07c0-0.15-0.02-0.29-0.05-0.43
		C5.68,8.5,5.63,8.37,5.54,8.26C5.46,8.15,5.35,8.06,5.21,8C5.06,7.93,4.88,7.9,4.65,7.9c-0.29,0-0.54,0.02-0.76,0.06
		C3.67,8,3.51,8.04,3.4,8.09L3.3,7.36c0.11-0.05,0.3-0.1,0.57-0.15s0.55-0.07,0.86-0.07c0.35,0,0.65,0.05,0.9,0.14
		C5.87,7.37,6.06,7.5,6.21,7.66c0.15,0.17,0.25,0.37,0.32,0.6c0.06,0.23,0.09,0.48,0.09,0.76V12.1z M10.68,11.95
		c-0.34,0.23-0.82,0.35-1.45,0.35c-0.44,0-0.78-0.04-1.02-0.11c-0.25-0.07-0.41-0.13-0.5-0.17l0.16-0.76
		c0.1,0.04,0.26,0.09,0.48,0.17c0.22,0.08,0.51,0.11,0.88,0.11c0.36,0,0.63-0.05,0.8-0.14c0.17-0.09,0.26-0.25,0.26-0.45
		c0-0.21-0.09-0.39-0.26-0.51c-0.17-0.13-0.45-0.27-0.84-0.43C9,9.94,8.82,9.87,8.65,9.79C8.47,9.71,8.32,9.61,8.2,9.51
		C8.07,9.4,7.97,9.27,7.89,9.12C7.82,8.97,7.78,8.78,7.78,8.56c0-0.44,0.16-0.78,0.48-1.04c0.32-0.26,0.76-0.38,1.32-0.38
		c0.14,0,0.28,0.01,0.42,0.02c0.14,0.02,0.27,0.03,0.39,0.06c0.12,0.02,0.23,0.05,0.32,0.07c0.09,0.03,0.16,0.05,0.21,0.07
		l-0.16,0.76c-0.09-0.05-0.24-0.1-0.45-0.16c-0.2-0.05-0.45-0.08-0.73-0.08c-0.25,0-0.46,0.05-0.64,0.15
		c-0.18,0.1-0.27,0.25-0.27,0.46c0,0.11,0.02,0.2,0.06,0.28c0.04,0.08,0.1,0.16,0.19,0.22C9,9.06,9.1,9.12,9.23,9.18
		c0.13,0.06,0.28,0.12,0.45,0.18c0.23,0.09,0.44,0.18,0.63,0.26c0.18,0.09,0.34,0.18,0.47,0.3c0.13,0.11,0.23,0.25,0.3,0.41
		c0.07,0.16,0.1,0.36,0.1,0.59C11.18,11.37,11.01,11.72,10.68,11.95z M15.33,12.19c-0.13-0.22-0.29-0.45-0.46-0.68
		c-0.17-0.23-0.36-0.45-0.55-0.66c-0.19-0.21-0.38-0.41-0.58-0.58c-0.2-0.18-0.38-0.33-0.56-0.45v2.37h-0.88v-7.2l0.88-0.15v4.49
		c0.15-0.15,0.32-0.32,0.5-0.5c0.18-0.18,0.36-0.37,0.54-0.56c0.18-0.19,0.34-0.37,0.5-0.54c0.16-0.17,0.29-0.33,0.41-0.46h1.03
		c-0.15,0.16-0.3,0.33-0.47,0.52c-0.17,0.19-0.35,0.38-0.53,0.57c-0.18,0.19-0.37,0.39-0.55,0.58c-0.19,0.19-0.36,0.37-0.53,0.54
		c0.19,0.15,0.39,0.33,0.6,0.54c0.21,0.21,0.42,0.45,0.63,0.7c0.21,0.25,0.4,0.5,0.58,0.76c0.18,0.26,0.34,0.49,0.46,0.72H15.33z"/>
</g>
<g>
</g>
<g>
</g>
<g>
</g>
<g>
</g>
<g>
</g>
<g>
</g>
<g>
</g>
<g>
</g>
<g>
</g>
<g>
</g>
<g>
</g>
</svg>
