<?xml version="1.0" encoding="utf-8"?>
<!-- Generator: Adobe Illustrator 23.0.2, SVG Export Plug-In . SVG Version: 6.00 Build 0)  -->
<svg version="1.1" id="Layer_1" xmlns="http://www.w3.org/2000/svg" xmlns:xlink="http://www.w3.org/1999/xlink" x="0px" y="0px"
	 width="19px" height="19px" viewBox="0 0 19 19" style="enable-background:new 0 0 19 19;" xml:space="preserve">
<style type="text/css">
	.st0{fill:#037EF3;}
</style>
<path class="st0" d="M17.1,0H1.9C0.85,0,0,0.85,0,1.9v15.2C0,18.15,0.85,19,1.9,19h15.2c1.05,0,1.9-0.85,1.9-1.9V1.9
	C19,0.85,18.15,0,17.1,0z M1.9,0.29h15.2c0.89,0,1.61,0.72,1.61,1.61v12.57H0.29V1.9C0.29,1.01,1.01,0.29,1.9,0.29z"/>
<g>
	<path class="st0" d="M8.79,4.95l0.37-0.74c0,0-1.08-1.26-4.12-0.8C2.47,3.8,2.3,5.6,2.3,5.6v3.26c0,0,0.06,2.09,3.14,2.46
		c0,0,1.85,0.37,4-0.92V7.14H6.05v0.8h2.34v1.91c0,0-0.74,0.49-1.72,0.55H5.44c0,0-1.62-0.12-2.11-1.52
		C3.3,8.78,3.29,8.69,3.29,8.59V5.91c0,0,0.06-1.2,2.01-1.64c0.06-0.01,0.12-0.02,0.19-0.03C5.91,4.2,7.64,4.12,8.79,4.95z"/>
	<path class="st0" d="M16.08,5.35l0.62-1.23c0,0-1.6-1.48-4.68-0.49c0,0-1.78,0.43-1.91,2.15v3.2c0,0,0.06,1.6,1.91,2.09
		c1.85,0.49,3.32,0.12,3.32,0.12s0.8-0.25,1.29-0.62l-0.55-1.23c0,0-2.21,1.05-3.69,0.12c0,0-0.43-0.31-0.49-0.74V6.09
		c0,0,0-1.05,1.6-1.23C13.5,4.86,14.54,4.61,16.08,5.35z"/>
</g>
<g>
</g>
<g>
</g>
<g>
</g>
<g>
</g>
<g>
</g>
<g>
</g>
<g>
</g>
<g>
</g>
<g>
</g>
<g>
</g>
<g>
</g>
</svg>
