<?xml version="1.0" encoding="utf-8"?>
<!-- Generator: Adobe Illustrator 23.0.2, SVG Export Plug-In . SVG Version: 6.00 Build 0)  -->
<svg version="1.1" id="Layer_1" xmlns="http://www.w3.org/2000/svg" xmlns:xlink="http://www.w3.org/1999/xlink" x="0px" y="0px"
	 viewBox="0 0 75 75" style="enable-background:new 0 0 75 75;" xml:space="preserve">
<style type="text/css">
	.st0{fill:url(#SVGID_1_);}
	.st1{fill:url(#SVGID_2_);}
	.st2{fill:#FFFFFF;}
</style>
<g>
	
		<radialGradient id="SVGID_1_" cx="2.4208" cy="-482.6294" r="37.493" gradientTransform="matrix(0 -1.982 -1.8439 0 -869.9984 85.5628)" gradientUnits="userSpaceOnUse">
		<stop  offset="0" style="stop-color:#FFDD55"/>
		<stop  offset="0.1" style="stop-color:#FFDD55"/>
		<stop  offset="0.5" style="stop-color:#FF543E"/>
		<stop  offset="1" style="stop-color:#C837AB"/>
	</radialGradient>
	<path class="st0" d="M37.5,0C21.9,0,17.3,0,16.4,0.1C13.2,0.4,11.2,0.9,9,2C7.3,2.8,6,3.8,4.7,5.1c-2.4,2.5-3.8,5.5-4.3,9.1
		C0.1,16,0,16.3,0,25.3c0,3,0,6.9,0,12.2c0,15.6,0,20.2,0.1,21.1c0.3,3.1,0.7,5.1,1.8,7.2c2,4.1,5.8,7.2,10.2,8.4
		c1.5,0.4,3.3,0.6,5.4,0.7C18.5,75,28,75,37.4,75s18.9,0,19.8-0.1c2.5-0.1,4-0.3,5.6-0.7c4.5-1.2,8.2-4.2,10.2-8.4
		c1-2.1,1.5-4.1,1.8-7.1C75,58.1,75,47.8,75,37.5c0-10.3,0-20.6-0.1-21.2c-0.2-3-0.8-5-1.8-7.2c-0.9-1.8-1.8-3.1-3.2-4.4
		c-2.5-2.4-5.5-3.8-9.1-4.3C59,0.1,58.7,0,49.7,0H37.5z"/>
	
		<radialGradient id="SVGID_2_" cx="130.895" cy="-273.5963" r="37.493" gradientTransform="matrix(0.1739 0.8687 3.5818 -0.7172 944.6363 -304.5172)" gradientUnits="userSpaceOnUse">
		<stop  offset="0" style="stop-color:#3771C8"/>
		<stop  offset="0.128" style="stop-color:#3771C8"/>
		<stop  offset="1" style="stop-color:#6600FF;stop-opacity:0"/>
	</radialGradient>
	<path class="st1" d="M37.5,0C21.9,0,17.3,0,16.4,0.1C13.2,0.4,11.2,0.9,9,2C7.3,2.8,6,3.8,4.7,5.1c-2.4,2.5-3.8,5.5-4.3,9.1
		C0.1,16,0,16.3,0,25.3c0,3,0,6.9,0,12.2c0,15.6,0,20.2,0.1,21.1c0.3,3.1,0.7,5.1,1.8,7.2c2,4.1,5.8,7.2,10.2,8.4
		c1.5,0.4,3.3,0.6,5.4,0.7C18.5,75,28,75,37.4,75s18.9,0,19.8-0.1c2.5-0.1,4-0.3,5.6-0.7c4.5-1.2,8.2-4.2,10.2-8.4
		c1-2.1,1.5-4.1,1.8-7.1C75,58.1,75,47.8,75,37.5c0-10.3,0-20.6-0.1-21.2c-0.2-3-0.8-5-1.8-7.2c-0.9-1.8-1.8-3.1-3.2-4.4
		c-2.5-2.4-5.5-3.8-9.1-4.3C59,0.1,58.7,0,49.7,0H37.5z"/>
	<path class="st2" d="M37.5,9.8c-7.5,0-8.5,0-11.4,0.2c-2.9,0.1-5,0.6-6.7,1.3c-1.8,0.7-3.4,1.7-4.9,3.2c-1.5,1.5-2.5,3.1-3.2,4.9
		c-0.7,1.8-1.2,3.8-1.3,6.7C9.8,29,9.8,30,9.8,37.5s0,8.5,0.2,11.4c0.1,2.9,0.6,5,1.3,6.7c0.7,1.8,1.7,3.4,3.2,4.9
		c1.5,1.5,3.1,2.5,4.9,3.2c1.8,0.7,3.8,1.2,6.7,1.3c3,0.1,3.9,0.2,11.4,0.2c7.5,0,8.5,0,11.4-0.2c2.9-0.1,5-0.6,6.7-1.3
		c1.8-0.7,3.4-1.7,4.9-3.2c1.5-1.5,2.5-3.1,3.2-4.9c0.7-1.8,1.1-3.8,1.3-6.7c0.1-3,0.2-3.9,0.2-11.4s0-8.5-0.2-11.4
		c-0.1-2.9-0.6-5-1.3-6.7c-0.7-1.8-1.7-3.4-3.2-4.9c-1.5-1.5-3.1-2.5-4.9-3.2c-1.8-0.7-3.8-1.2-6.7-1.3C45.9,9.8,45,9.8,37.5,9.8
		L37.5,9.8z M35,14.8c0.7,0,1.6,0,2.5,0c7.4,0,8.3,0,11.2,0.2c2.7,0.1,4.2,0.6,5.1,1C55.1,16.4,56,17,57,18c1,1,1.6,1.9,2.1,3.2
		c0.4,1,0.8,2.4,1,5.1c0.1,2.9,0.2,3.8,0.2,11.2s0,8.3-0.2,11.2c-0.1,2.7-0.6,4.2-1,5.1C58.6,55.1,58,56,57,57c-1,1-1.9,1.6-3.2,2.1
		c-1,0.4-2.4,0.8-5.1,1c-2.9,0.1-3.8,0.2-11.2,0.2c-7.4,0-8.3,0-11.2-0.2c-2.7-0.1-4.2-0.6-5.1-1C19.9,58.6,19,58,18,57
		c-1-1-1.6-1.9-2.1-3.2c-0.4-1-0.8-2.4-1-5.1c-0.1-2.9-0.2-3.8-0.2-11.2s0-8.3,0.2-11.2c0.1-2.7,0.6-4.2,1-5.1
		c0.5-1.3,1.1-2.2,2.1-3.2c1-1,1.9-1.6,3.2-2.1c1-0.4,2.4-0.8,5.1-1C28.9,14.8,29.9,14.8,35,14.8L35,14.8z M52.3,19.4
		c-1.8,0-3.3,1.5-3.3,3.3c0,1.8,1.5,3.3,3.3,3.3s3.3-1.5,3.3-3.3S54.1,19.4,52.3,19.4L52.3,19.4z M37.5,23.3
		c-7.9,0-14.2,6.4-14.2,14.2s6.4,14.2,14.2,14.2c7.9,0,14.2-6.4,14.2-14.2S45.3,23.3,37.5,23.3L37.5,23.3z M37.5,28.3
		c5.1,0,9.2,4.1,9.2,9.2c0,5.1-4.1,9.2-9.2,9.2c-5.1,0-9.2-4.1-9.2-9.2C28.3,32.4,32.4,28.3,37.5,28.3z"/>
</g>
</svg>
